<svg xmlns="http://www.w3.org/2000/svg" version="1.1" xmlns:xlink="http://www.w3.org/1999/xlink" xmlns:svgjs="http://svgjs.dev/svgjs" width="512" height="512"><svg id="SvgjsSvg1015" viewBox="0 0 512 512" width="512" height="512" version="1.1" sodipodi:docname="wave-haikei(1).svg" inkscape:version="1.4 (e7c3feb100, 2024-10-09)" xmlns:inkscape="http://www.inkscape.org/namespaces/inkscape" xmlns:sodipodi="http://sodipodi.sourceforge.net/DTD/sodipodi-0.dtd" xmlns="http://www.w3.org/2000/svg" xmlns:svg="http://www.w3.org/2000/svg">
  <defs id="SvgjsDefs1014"></defs>
  <sodipodi:namedview id="SvgjsSodipodi:namedview1013" pagecolor="#ffffff" bordercolor="#000000" borderopacity="0.25" inkscape:showpageshadow="2" inkscape:pageopacity="0.0" inkscape:pagecheckerboard="0" inkscape:deskcolor="#d1d1d1" inkscape:zoom="2.265625" inkscape:cx="256" inkscape:cy="256" inkscape:window-width="2560" inkscape:window-height="1371" inkscape:window-x="0" inkscape:window-y="0" inkscape:window-maximized="1" inkscape:current-layer="visual"></sodipodi:namedview>
  <rect x="0" y="0" width="512" height="512" fill="#65c3f3" id="SvgjsRect1012"></rect>
  <path d="M0 427L12.2 419.2C24.3 411.3 48.7 395.7 73 380.5C97.3 365.3 121.7 350.7 146 350.3C170.3 350 194.7 364 219.2 376.8C243.7 389.7 268.3 401.3 292.8 407.7C317.3 414 341.7 415 366 415.3C390.3 415.7 414.7 415.3 439 405.7C463.3 396 487.7 377 499.8 367.5L512 358L512 513L499.8 513C487.7 513 463.3 513 439 513C414.7 513 390.3 513 366 513C341.7 513 317.3 513 292.8 513C268.3 513 243.7 513 219.2 513C194.7 513 170.3 513 146 513C121.7 513 97.3 513 73 513C48.7 513 24.3 513 12.2 513L0 513Z" fill="#00ff8b" stroke-linecap="round" stroke-linejoin="miter" id="SvgjsPath1011"></path>
  <ellipse style="fill:#ff9955;stroke-width:1.43399" id="SvgjsEllipse1010" cx="91.8069" cy="382.01379" rx="64.441383" ry="65.54483"></ellipse>
</svg><style>@media (prefers-color-scheme: light) { :root { filter: none; } }
@media (prefers-color-scheme: dark) { :root { filter: none; } }
</style></svg>